<?xml version="1.0" encoding="utf-8"?>
<!-- Generator: Adobe Illustrator 23.0.0, SVG Export Plug-In . SVG Version: 6.00 Build 0)  -->
<svg version="1.1" id="Layer_1" xmlns="http://www.w3.org/2000/svg" xmlns:xlink="http://www.w3.org/1999/xlink" x="0px" y="0px"
	 viewBox="0 0 1177 1000" style="enable-background:new 0 0 1177 1000;" xml:space="preserve">
<style type="text/css">
	.st0{fill:#CDC7D7;}
	.st1{fill:url(#SVGID_1_);}
</style>
<path class="st0" d="M684.29,604c-0.3-0.37-0.59-0.73-0.86-1.09c-0.33-0.43-0.65-0.86-0.94-1.27c0.26,0.34,0.52,0.68,0.77,1.02
	C683.61,603.1,683.95,603.55,684.29,604z"/>
<linearGradient id="SVGID_1_" gradientUnits="userSpaceOnUse" x1="590.6087" y1="956.0139" x2="576.4023" y2="117.9079">
	<stop  offset="0" style="stop-color:#FF4133"/>
	<stop  offset="1" style="stop-color:#6534CC"/>
</linearGradient>
<path class="st1" d="M1123.99,622.97c-0.72-114.81-75.2-212.12-178.45-246.92c41.64-26.5,69.27-73.06,69.27-126.07
	c0-82.47-66.86-149.34-149.34-149.34c-8.54,0-16.91,0.72-25.06,2.1c-74.2,8.69-131.77,71.78-131.77,148.31
	c0,52.55,27.15,98.76,68.19,125.38c-52.65,18-97.75,52.26-129.3,96.83l-45.07,67.6l-0.5,0.76l-16.81,25.72
	c0,0-37.83,56.06-37.83,56.26c0,0-60.57,96.81-63.18,101.26c-2.46,4.2-5.06,8.31-7.81,12.3c-25.64,37.34-63.52,65.62-107.86,79.05
	c-19.41,6.31-40.17,9.71-61.8,9.71c-111.45,0-201.79-90.34-201.79-201.79c0-89.69,58.49-165.69,139.41-191.96
	c0.03-0.01,0.06-0.02,0.1-0.03c19.62-6.36,40.55-9.8,62.28-9.8c39.75,0,76.81,11.49,108.04,31.32c9.56,6.07,34.33,27.97,39.69,34.04
	c7.22,8.16,15.34,17.8,19.82,23.65c2.22,2.89,4.55,5.95,6.94,9.09c0.28,0.36,0.56,0.73,0.82,1.09c0.37,0.47,0.74,0.95,1.1,1.43
	c-0.32-0.4-0.63-0.78-0.92-1.17c1.97,3.09,3.96,6.23,5.94,9.35c7.96,12.63,15.62,25,20.61,33.09c3.54,5.76,5.74,9.36,5.74,9.36
	s2.68,4.07,7.22,10.98l39.11-53.85l-2.56-3.84l-19.58-29.37l-16.16-24.25c-31.55-44.57-76.65-78.83-129.3-96.83
	c41.04-26.61,68.19-72.83,68.19-125.38c0-76.53-57.57-139.62-131.77-148.31c-8.15-1.38-16.52-2.1-25.06-2.1
	c-82.47,0-149.34,66.86-149.34,149.34c0,53.01,27.63,99.58,69.27,126.07C121.21,410.85,46.73,508.16,46.01,622.97
	C46,623.53,46,624.1,46,624.66v0.41c0,1.13,0.01,2.26,0.02,3.38C47.47,772.04,164.33,888,308.27,888
	c93.78,0,176.04-49.21,222.42-123.23c1.54-2.46,41.58-64.4,44.52-68.9c14.79-22.53,52.68-80.23,54.42-82.89
	c15.13-23.01,25.92-39.41,25.92-39.41s16.77-27.5,32.47-52.06c0.27-0.36,0.55-0.73,0.82-1.09c2.39-3.14,4.72-6.2,6.94-9.09
	c4.47-5.84,12.6-15.49,19.82-23.65c5.36-6.07,30.13-27.97,39.69-34.04c31.23-19.84,68.29-31.32,108.04-31.32
	c21.73,0,42.66,3.44,62.28,9.8c0.03,0.01,0.06,0.02,0.1,0.03c80.92,26.27,139.41,102.28,139.41,191.96
	c0,111.45-90.34,201.79-201.79,201.79c-21.63,0-42.39-3.4-61.8-9.71c-51.68-15.65-94.6-51.48-119.58-98.32
	c-0.29-0.55-4.09-6.63-9.63-15.46c-7.43-11.84-18-28.63-27.47-43.67l-38,54.93c0,0,13.45,21.15,18.84,29.45
	c5.15,7.93,8.47,13.07,9.1,14.15C680.2,835.45,764.82,888,861.73,888c143.94,0,260.81-115.96,262.25-259.55
	c0.02-0.91,0.02-1.81,0.02-2.72v-0.66C1124,624.37,1123.99,623.67,1123.99,622.97z M207.65,252.65
	c0-58.24,47.21-105.44,105.44-105.44c2.37,0,4.71,0.07,7.03,0.25c50.31,7.99,88.78,51.57,88.78,104.13
	c0,58.24-47.21,105.44-105.44,105.44c-2.37,0-4.71-0.07-7.03-0.25C246.11,348.8,207.65,305.22,207.65,252.65z M873.58,356.78
	c-2.32,0.17-4.67,0.25-7.03,0.25c-58.24,0-105.44-47.21-105.44-105.44c0-52.56,38.46-96.14,88.78-104.13
	c2.32-0.17,4.67-0.25,7.03-0.25c58.24,0,105.44,47.21,105.44,105.44C962.35,305.22,923.89,348.8,873.58,356.78z"/>
</svg>
